<svg width="24" height="24" viewBox="0 0 24 24" fill="none" xmlns="http://www.w3.org/2000/svg">
<path d="M4 0C1.80671 0 0 1.80671 0 4V20C0 22.1933 1.80671 24 4 24H20C22.1933 24 24 22.1933 24 20V4C24 1.80671 22.1933 0 20 0H4ZM4 2.66667H20C20.7534 2.66667 21.3333 3.24663 21.3333 4V20C21.3333 20.7534 20.7534 21.3333 20 21.3333H4C3.24663 21.3333 2.66667 20.7534 2.66667 20V4C2.66667 3.24663 3.24663 2.66667 4 2.66667ZM12 5.33333V14.6667C12 15.42 11.42 16 10.6667 16C9.91329 16 9.33333 15.42 9.33333 14.6667C9.33333 13.9133 9.91329 13.3333 10.6667 13.3333V10.6667C8.47337 10.6667 6.66667 12.4734 6.66667 14.6667C6.66667 16.86 8.47337 18.6667 10.6667 18.6667C12.86 18.6667 14.6667 16.86 14.6667 14.6667V9.64323C15.4882 10.2285 16.3455 10.6667 17.3333 10.6667V8C17.2702 8 16.3502 7.70792 15.7083 7.14844C15.0664 6.58896 14.6667 5.88665 14.6667 5.33333H12Z" fill="white"/>
</svg>
