<svg width="91" height="61" viewBox="0 0 91 61" fill="none" xmlns="http://www.w3.org/2000/svg">
<path d="M78.3242 60.25L52.3425 60.25L62.2592 40.4167L50.4583 40.4167L50.4583 0.750009L90.125 0.750016L90.125 36.6484L78.3242 60.25ZM68.4075 50.3333L72.1758 50.3333L80.2083 34.2684L80.2083 10.6667L60.375 10.6667L60.375 30.5L78.3242 30.5L68.4075 50.3333ZM28.7408 60.25L2.75916 60.25L12.6758 40.4167L0.874993 40.4167L0.875 0.75L40.5417 0.750007L40.5417 36.6483L28.7408 60.25ZM18.8242 50.3333L22.5925 50.3333L30.625 34.2683L30.625 10.6667L10.7917 10.6667L10.7917 30.5L28.7408 30.5L18.8242 50.3333Z" fill="#032C89"/>
</svg>
