<svg width="28" height="24" viewBox="0 0 28 24" fill="none" xmlns="http://www.w3.org/2000/svg">
<path d="M25.4297 0.015612C24.9865 -0.0313881 24.5048 0.0378204 24.0208 0.229154C23.4208 0.465154 14.0192 4.42003 5.25521 8.10936L2.35938 9.32811C1.23804 9.78278 0.671875 10.5222 0.671875 11.5182C0.671875 12.2155 0.967 13.1614 2.375 13.7187L7.26302 15.6771C7.68569 16.9451 8.6674 19.8892 8.91406 20.6719C9.06073 21.1359 9.43119 22.3048 10.3672 22.5781C10.5592 22.6434 10.7595 22.6771 10.9635 22.6771C11.5542 22.6771 11.9795 22.4022 12.1875 22.2422L15.2943 19.6146L19.0677 23.1042C19.213 23.2522 19.9823 24 21.0156 24C22.305 24 23.283 22.9267 23.487 21.888C23.5976 21.3187 27.237 3.0494 27.237 3.05207C27.5636 1.58674 26.9763 0.826591 26.599 0.502591C26.2756 0.225925 25.8729 0.062612 25.4297 0.015612ZM24.5469 2.89582C24.0442 5.41582 21.304 19.171 20.888 21.1536L15.3724 16.0521L11.6302 19.2213L12.6667 15.1667C12.6667 15.1667 19.8167 7.92913 20.2474 7.5078C20.5941 7.17047 20.6667 7.05222 20.6667 6.93488C20.6667 6.77888 20.5864 6.66665 20.401 6.66665C20.2344 6.66665 20.008 6.82636 19.888 6.90103C18.3636 7.85145 11.8721 11.5496 8.67708 13.3672L4.04167 11.5156L6.29167 10.5703C12.0237 8.15697 22.2322 3.85849 24.5469 2.89582Z" fill="white"/>
</svg>
